<?xml version="1.0" encoding="UTF-8"?>
<svg id="_レイヤー_1" xmlns="http://www.w3.org/2000/svg" version="1.1" viewBox="0 0 283.46 283.46">
  <!-- Generator: Adobe Illustrator 29.4.0, SVG Export Plug-In . SVG Version: 2.1.0 Build 152)  -->
  <defs>
    <style>
      .st0 {
        fill: #c96c00;
      }

      .st1 {
        fill: #004f94;
      }
    </style>
  </defs>
  <rect y="0" width="283.46" height="283.46" rx="56.69" ry="56.69"/>
  <g>
    <path class="st1" d="M166.76,91.25c4.07,5.77-.05,13.94-6.5,14.98-7.41,1.36-13.19-8.41-9.28-14.81,3.45-6.02,12.01-5.98,15.71-.26l.06.09h0Z"/>
    <path class="st1" d="M81.86,138.99c2.21-.41,4.52-.55,6.84-.61,28.35.3,57.36-1.98,85.57-.56,4.12.29,8.81.88,12.11,3.28,4.85,3.37,5.45,10.06,5.52,15.75,0,12.34.79,25,.61,37.24-.04,9.7-1.79,19.3-12.23,21.72-3.5.91-7.29,1.15-10.93,1.32-25.67.96-52.68-1.52-78.58-.9-5.19-.02-11.2-.25-15.39-3.37-6.44-4.85-6.54-14.22-6.71-21.8-.1-10.47.53-21.32.59-31.86.04-2.6.12-5.31.55-7.83.9-6.65,5.23-11.27,11.74-12.31l.32-.06h-.01Z"/>
    <path class="st1" d="M89.95,59.22c12.61-2.37,24.42,3.6,34.57,11.15.92.67,2.03,1.43,3.12,1.45,1.42.05,2.51-1.13,3.48-2.11,1.89-2.01,3.92-3.74,6.1-5.16,9.53-6.25,22.75-7.48,34.41-4.64,27.53,7.91,33.11,54.11,5.94,68.56-6.42,3.64-13.72,5.01-20.94,4.32-9.02-.86-17.75-4.91-24.36-11.42-2.63-2.7-4.16-2.01-7.08.49-50.47,42.33-98.05-42.8-35.37-62.62l.13-.03h0ZM154.07,71.02c-6.18.94-11.22,5.39-14.79,10.68-4.16,6.36-6.19,13.94-3.82,20.69,10.8,38.39,64.77,10.61,42.56-21.05-2.8-3.72-6.28-6.73-10.32-8.46-4.2-1.12-9.38-1.98-13.55-1.88h-.07v.02h0ZM88.17,73.97c-4.25.6-8.27,3.39-10.51,7.17-3.41,5.53.1,10.07,5.45,10.65,12.77,2.11,18.21-19.17,5.13-17.85h-.08s.01.03.01.03ZM106.54,93.01c2.44,2.5,6.82,2.16,9.46-.01,7.49-5.75-3.09-22.83-10.39-17.64-4.95,3.84-2.91,13.63.85,17.58l.08.08h0ZM79.49,99.2c-4.86,1.9-3.41,8.15-1.63,12.2,1.42,3.26,3.46,6.17,4.97,7.29,6.73,2.4,11.28-1.82,9.79-9.32-1.08-6.18-6.63-12.3-13.05-10.19l-.07.03h-.01ZM110.66,99.83c-2.63.38-4.75,1.95-6.42,4.01-2.23,2.88-3.76,6.69-2.97,10.43,5.91,18.27,29.38-15.88,9.51-14.46l-.12.02Z"/>
    <path class="st1" d="M219.09,202.03c-1.04,1-2.43.89-3.54.25-3.62-2.01-11.75-9.04-15.69-12.34-.98-.9-1.76-1.16-1.78-2.39v-28.91c-.03-.76.06-1.04.6-1.47,2.08-1.72,12.64-10.45,15.29-12.64,1.1-.91,2.34-1.36,3.88-1.13,2.41.45,2.33,3.58,2.21,5.62-.64,16.09,1.36,33.47.21,49.23-.14,1.3-.19,2.73-1.1,3.7l-.06.07h-.02Z"/>
  </g>
  <path class="st0" d="M192.23,73.57c0,.79.29,1.74.75,2.39.63.91,1.37,1.48,2.48,1.94.57.23.78.29,1.36.33.93.09,1.87-.05,2.55-.37.32-.15,3.09-2.06,6.57-4.54l6-4.27-8.37,35.65c-7.85,33.4-8.37,35.67-8.32,36.02.18,1.14.81,2.2,1.71,2.93,1.6,1.29,3.75,1.61,5.45.8.7-.33,1.1-.64,1.53-1.2l.27-.36,8.45-35.58,8.45-35.58,3.81,6.67c2.09,3.67,3.96,6.88,4.15,7.15.19.27.58.66.88.91,1.66,1.3,3.74,1.58,5.51.73,1.03-.49,1.7-1.28,1.94-2.32.17-.69.13-1.35-.11-2.05-.2-.57-14.22-25.18-14.86-26.06-1.07-1.48-3.14-2.35-5.05-2.09-.85.11-1.54.46-3.09,1.57-8.23,5.84-20.43,14.53-20.75,14.79-.58.45-.93.98-1.14,1.72-.09.34-.18.7-.18.81h.02,0s0,.01,0,.01Z"/>
</svg>